<?xml version="1.0" standalone="no"?>
<!DOCTYPE svg PUBLIC "-//W3C//DTD SVG 20010904//EN"
 "http://www.w3.org/TR/2001/REC-SVG-20010904/DTD/svg10.dtd">
<svg version="1.0" xmlns="http://www.w3.org/2000/svg"
 width="700.000000pt" height="700.000000pt" viewBox="0 0 700.000000 700.000000"
 preserveAspectRatio="xMidYMid meet">
<metadata>
Created by potrace 1.14, written by Peter Selinger 2001-2017
</metadata>
<g transform="translate(0.000000,700.000000) scale(0.100000,-0.100000)"
fill="#000000" stroke="none">
<path d="M3280 6994 c-19 -2 -84 -9 -145 -14 -578 -56 -1180 -283 -1660 -625
-237 -169 -531 -446 -709 -670 -416 -521 -673 -1147 -748 -1820 -17 -154 -17
-585 0 -730 69 -588 254 -1099 567 -1570 126 -189 242 -332 410 -504 580 -595
1295 -943 2140 -1043 145 -17 576 -17 730 0 822 91 1556 447 2131 1034 203
206 348 390 487 618 274 449 432 915 499 1465 16 135 16 591 0 730 -100 846
-447 1557 -1043 2141 -555 542 -1249 874 -2029 970 -117 15 -553 27 -630 18z
m-1150 -3494 l0 -1730 -85 0 -85 0 0 1730 0 1730 85 0 85 0 0 -1730z m2615
1703 c-2 -16 -7 -61 -10 -101 -27 -352 -249 -794 -587 -1172 -93 -103 -300
-307 -388 -383 l-54 -47 59 -51 c109 -95 380 -372 468 -481 290 -354 480 -761
503 -1073 3 -44 7 -90 10 -102 l4 -23 -1250 0 -1250 0 4 22 c3 13 7 59 10 103
22 312 212 718 503 1073 90 110 361 389 468 480 l60 52 -60 52 c-107 91 -378
370 -468 480 -291 355 -481 761 -503 1073 -3 44 -7 90 -10 103 l-4 22 1250 0
1250 0 -5 -27z m295 -1703 l0 -1730 -80 0 -80 0 0 1730 0 1730 80 0 80 0 0
-1730z"/>
</g>
</svg>
